<?xml version="1.0" encoding="utf-8"?>
<!-- Generator: Adobe Illustrator 23.0.1, SVG Export Plug-In . SVG Version: 6.00 Build 0)  -->
<svg version="1.1" id="Laag_1" xmlns="http://www.w3.org/2000/svg" xmlns:xlink="http://www.w3.org/1999/xlink" x="0px" y="0px"
	 viewBox="0 0 380 374" style="enable-background:new 0 0 380 374;" xml:space="preserve">
<style type="text/css">
	.st0{fill:#FFFFFF;}
	.st1{fill:#FFFFFF;stroke:#FFFFFF;stroke-miterlimit:10;}
	.st2{stroke:#000000;stroke-miterlimit:10;}
	.st3{fill:none;}
</style>
<g>
	<rect x="4.5" y="50.5" class="st0" width="371" height="21"/>
	<path class="st0" d="M375,51v20H5V51H375 M376,50H4v22h372V50L376,50z"/>
</g>
<g>
	<rect x="4.5" y="303.5" class="st0" width="371" height="21"/>
	<path class="st0" d="M375,304v20H5v-20H375 M376,303H4v22h372V303L376,303z"/>
</g>
<g>
	<rect x="39.5" y="72.5" class="st0" width="34" height="241"/>
	<path class="st0" d="M73,73v240H40V73H73 M74,72H39v242h35V72L74,72z"/>
</g>
<g>
	<rect x="198.5" y="72.5" class="st0" width="34" height="241"/>
	<path class="st0" d="M232,73v240h-33V73H232 M233,72h-35v242h35V72L233,72z"/>
</g>
<path class="st1" d="M101.5,71.5h61v49.22c-3.66-7.29-10.94-19.48-24.26-30.5C123.96,78.4,109.55,73.57,101.5,71.5z"/>
<path class="st1" d="M101.5,302.5h61v-49.22c-3.66,7.29-10.94,19.48-24.26,30.5C123.96,295.6,109.55,300.43,101.5,302.5z"/>
<path class="st1" d="M87.5,184c6.28,0.85,16.66,3.05,27.83,9.5c11.18,6.45,18.29,14.35,22.17,19.37c0-19.25,0-38.49,0-57.74
	c-3.54,4.9-10.25,12.89-21.17,19.37C104.63,181.45,93.64,183.38,87.5,184z"/>
<g>
</g>
<path class="st1" d="M264.5,72.5c13.33,0,26.67,0,40,0c22.53,6.34,38.89,25.58,41.13,48.14c1.99,20.07-7.48,39.86-24.51,51.52
	c2.18,2.03,31.73,30.63,24.38,72.34c-6.92,39.27-40.58,56.34-44,58c-12.01-0.17-24.02-0.33-36.03-0.5c0,0,72.34-61.21-1.85-127.98
	c18.81-9.83,30.71-29.3,30.88-50.52C294.68,102.3,283.12,82.65,264.5,72.5z"/>
<path class="st2" d="M-186.5,229.5"/>
<g>
	<rect x="78.91" y="4.06" class="st3" width="233.09" height="45.19"/>
	<path class="st1" d="M134.24,23.76h-13.1v12.15h14.6v3.65h-18.95V5.86h18.2v3.65h-13.85v10.65h13.1V23.76z"/>
	<path class="st1" d="M179.79,24.76c-0.25-4.7-0.55-10.35-0.5-14.55h-0.15c-1.15,3.95-2.55,8.15-4.25,12.8l-5.95,16.35h-3.3
		l-5.45-16.05c-1.6-4.75-2.95-9.1-3.9-13.1h-0.1c-0.1,4.2-0.35,9.85-0.65,14.9l-0.9,14.45h-4.15l2.35-33.7h5.55l5.75,16.3
		c1.4,4.15,2.55,7.85,3.4,11.35h0.15c0.85-3.4,2.05-7.1,3.55-11.35l6-16.3h5.55l2.1,33.7h-4.25L179.79,24.76z"/>
	<path class="st1" d="M205.93,5.86v33.7h-4.35V5.86H205.93z"/>
	<path class="st1" d="M223.53,5.86h4.35v30.05h14.4v3.65h-18.75V5.86z"/>
	<path class="st1" d="M274.58,23.76h-13.1v12.15h14.6v3.65h-18.95V5.86h18.2v3.65h-13.85v10.65h13.1V23.76z"/>
</g>
<g>
	<rect x="62.91" y="334.06" class="st3" width="267.09" height="45.19"/>
	<path class="st1" d="M93.36,336.31c1.9-0.4,4.9-0.7,7.95-0.7c4.35,0,7.15,0.75,9.25,2.45c1.75,1.3,2.8,3.3,2.8,5.95
		c0,3.25-2.15,6.1-5.7,7.4v0.1c3.2,0.8,6.95,3.45,6.95,8.45c0,2.9-1.15,5.1-2.85,6.75c-2.35,2.15-6.15,3.15-11.65,3.15
		c-3,0-5.3-0.2-6.75-0.4V336.31z M97.71,350.11h3.95c4.6,0,7.3-2.4,7.3-5.65c0-3.95-3-5.5-7.4-5.5c-2,0-3.15,0.15-3.85,0.3V350.11z
		 M97.71,366.26c0.85,0.15,2.1,0.2,3.65,0.2c4.5,0,8.65-1.65,8.65-6.55c0-4.6-3.95-6.5-8.7-6.5h-3.6V366.26z"/>
	<path class="st1" d="M135.91,358.96l-3.5,10.6h-4.5l11.45-33.7h5.25l11.5,33.7h-4.65l-3.6-10.6H135.91z M146.96,355.56l-3.3-9.7
		c-0.75-2.2-1.25-4.2-1.75-6.15h-0.1c-0.5,2-1.05,4.05-1.7,6.1l-3.3,9.75H146.96z"/>
	<path class="st1" d="M188.51,353.76h-13.1v12.15h14.6v3.65h-18.95v-33.7h18.2v3.65h-13.85v10.65h13.1V353.76z"/>
	<path class="st1" d="M205.66,335.86h4.35v30.05h14.4v3.65h-18.75V335.86z"/>
	<path class="st1" d="M239.26,336.31c2.65-0.4,5.8-0.7,9.25-0.7c6.25,0,10.7,1.45,13.65,4.2c3,2.75,4.75,6.65,4.75,12.1
		c0,5.5-1.7,10-4.85,13.1c-3.15,3.15-8.35,4.85-14.9,4.85c-3.1,0-5.7-0.15-7.9-0.4V336.31z M243.61,366.11
		c1.1,0.2,2.7,0.25,4.4,0.25c9.3,0,14.35-5.2,14.35-14.3c0.05-7.95-4.45-13-13.65-13c-2.25,0-3.95,0.2-5.1,0.45V366.11z"/>
	<path class="st1" d="M300.01,353.76h-13.1v12.15h14.6v3.65h-18.95v-33.7h18.2v3.65h-13.85v10.65h13.1V353.76z"/>
</g>
<g>
</g>
<g>
</g>
<g>
</g>
<g>
</g>
<g>
</g>
<g>
</g>
<g>
</g>
<g>
</g>
<g>
</g>
<g>
</g>
<g>
</g>
<g>
</g>
<g>
</g>
<g>
</g>
<g>
</g>
</svg>
