<?xml version="1.0" encoding="utf-8"?>
<!-- Generator: Adobe Illustrator 23.0.1, SVG Export Plug-In . SVG Version: 6.00 Build 0)  -->
<svg version="1.1" id="Laag_1" xmlns="http://www.w3.org/2000/svg" xmlns:xlink="http://www.w3.org/1999/xlink" x="0px" y="0px"
	 viewBox="0 0 380 374" style="enable-background:new 0 0 380 374;" xml:space="preserve">
<style type="text/css">
	.st0{fill:#FFFFFF;}
	.st1{stroke:#000000;stroke-miterlimit:10;}
	.st2{fill:none;}
	.st3{font-family:'MyriadPro-Regular';}
	.st4{font-size:50px;}
	.st5{letter-spacing:10;}
</style>
<g>
	<rect x="4" y="50" class="st0" width="372" height="22"/>
</g>
<g>
	<rect x="4" y="303" class="st0" width="372" height="22"/>
</g>
<g>
	<rect x="39" y="72" class="st0" width="35" height="242"/>
</g>
<g>
	<rect x="198" y="72" class="st0" width="35" height="242"/>
</g>
<path class="st0" d="M101.5,71.5h61v49.22c-3.66-7.29-10.94-19.48-24.26-30.5C123.96,78.4,109.55,73.57,101.5,71.5z"/>
<path class="st0" d="M101.5,302.5h61v-49.22c-3.66,7.29-10.94,19.48-24.26,30.5C123.96,295.6,109.55,300.43,101.5,302.5z"/>
<path class="st0" d="M87.5,184c6.28,0.85,16.66,3.05,27.83,9.5c11.18,6.45,18.29,14.35,22.17,19.37c0-19.25,0-38.49,0-57.74
	c-3.54,4.9-10.25,12.89-21.17,19.37C104.63,181.45,93.64,183.38,87.5,184z"/>
<path class="st0" d="M264.5,72.5c13.33,0,26.67,0,40,0c22.53,6.34,38.89,25.58,41.13,48.14c1.99,20.07-7.48,39.86-24.51,51.52
	c2.18,2.03,31.73,30.63,24.38,72.34c-6.92,39.27-40.58,56.34-44,58c-12.01-0.17-24.02-0.33-36.03-0.5c0,0,72.34-61.21-1.85-127.98
	c18.81-9.83,30.71-29.3,30.88-50.52C294.68,102.3,283.12,82.65,264.5,72.5z"/>
<path class="st1" d="M-186.5,229.5"/>
<rect x="78.91" y="4.06" class="st2" width="233.09" height="45.19"/>
<text transform="matrix(1 0 0 1 112.9839 39.5635)" class="st0 st3 st4 st5">EMILE</text>
<rect x="62.91" y="334.06" class="st2" width="267.09" height="45.19"/>
<text transform="matrix(1 0 0 1 89.5591 369.563)" class="st0 st3 st4 st5">BAELDE</text>
</svg>
